<svg width="2440" height="488" viewBox="0 0 2440 488" fill="none" xmlns="http://www.w3.org/2000/svg">
<path d="M0 325.333L67.7778 334.314C135.556 343.972 271.111 360.917 406.667 334.314C542.222 306.694 677.778 235.528 813.333 207.908C948.889 181.306 1084.44 198.25 1220 244C1355.56 289.75 1491.11 360.917 1626.67 352.444C1762.22 343.972 1897.78 252.472 2033.33 262.131C2168.89 271.111 2304.44 379.556 2372.22 433.778L2440 488V0H2372.22C2304.44 0 2168.89 0 2033.33 0C1897.78 0 1762.22 0 1626.67 0C1491.11 0 1355.56 0 1220 0C1084.44 0 948.889 0 813.333 0C677.778 0 542.222 0 406.667 0C271.111 0 135.556 0 67.7778 0H0V325.333Z" fill="#D3E0EA"/>
</svg>
