<?xml version="1.0" standalone="no"?><svg xmlns="http://www.w3.org/2000/svg" viewBox="0 0 1440 320"><path fill="#F6F5F5" fill-opacity="1" d="M0,192L40,197.3C80,203,160,213,240,197.3C320,181,400,139,480,122.7C560,107,640,117,720,144C800,171,880,213,960,208C1040,203,1120,149,1200,154.7C1280,160,1360,224,1400,256L1440,288L1440,320L1400,320C1360,320,1280,320,1200,320C1120,320,1040,320,960,320C880,320,800,320,720,320C640,320,560,320,480,320C400,320,320,320,240,320C160,320,80,320,40,320L0,320Z"></path></svg>