<svg width="1440" height="320" viewBox="0 0 1440 320" fill="none" xmlns="http://www.w3.org/2000/svg">
<path d="M0 128L40 122.7C80 117 160 107 240 122.7C320 139 400 181 480 197.3C560 213 640 203 720 176C800 149 880 107 960 112C1040 117 1120 171 1200 165.3C1280 160 1360 96 1400 64L1440 32V-1.52588e-05H1400C1360 -1.52588e-05 1280 -1.52588e-05 1200 -1.52588e-05C1120 -1.52588e-05 1040 -1.52588e-05 960 -1.52588e-05C880 -1.52588e-05 800 -1.52588e-05 720 -1.52588e-05C640 -1.52588e-05 560 -1.52588e-05 480 -1.52588e-05C400 -1.52588e-05 320 -1.52588e-05 240 -1.52588e-05C160 -1.52588e-05 80 -1.52588e-05 40 -1.52588e-05H0V128Z" fill="#F6F5F5"/>
</svg>
